<svg width="0" height="0" class="hidden">
  <symbol xmlns="http://www.w3.org/2000/svg" viewBox="0 0 24 24" id="menu">
    <path d="M21.5 24h-19A2.503 2.503 0 010 21.5v-19C0 1.122 1.121 0 2.5 0h19C22.879 0 24 1.122 24 2.5v19c0 1.378-1.121 2.5-2.5 2.5zM2.5 1C1.673 1 1 1.673 1 2.5v19c0 .827.673 1.5 1.5 1.5h19c.827 0 1.5-.673 1.5-1.5v-19c0-.827-.673-1.5-1.5-1.5z"></path>
    <path d="M16.5 8h-9a.5.5 0 010-1h9a.5.5 0 010 1zm0 4.5h-9a.5.5 0 010-1h9a.5.5 0 010 1zm0 4.5h-9a.5.5 0 010-1h9a.5.5 0 010 1z"></path>
  </symbol>
  <symbol xmlns="http://www.w3.org/2000/svg" viewBox="0 0 512 512" id="easy">
    <path d="M184 304H72a8 8 0 00-8 8v96a8 8 0 008 8h112a8 8 0 008-8v-96a8 8 0 00-8-8zm-8 96H80v-80h96z"></path>
    <path d="M96 336h32v16H96zm32 32h32v16h-32z"></path>
    <path d="M380 64H136V24a8 8 0 00-12.878-6.34l-104 80a8 8 0 000 12.68l104 80A8 8 0 00136 184v-40h216a64.072 64.072 0 0164 64v144a63.897 63.897 0 01-48 61.993V232a8 8 0 00-8-8H24a8 8 0 00-8 8v256a8 8 0 008 8h356a116.131 116.131 0 00116-116V180A116.131 116.131 0 00380 64zm-28 176v192H240V240zm-208 0v32h-32v-32zm-112 0h64v40a8 8 0 008 8h48a8 8 0 008-8v-40h64v192H32zm448 140a100.113 100.113 0 01-100 100H32v-32h328a8 8 0 008-8v-9.605A79.864 79.864 0 00432 352V208a80.09 80.09 0 00-80-80H128a8 8 0 00-8 8v31.753L37.121 104 120 40.247V72a8 8 0 008 8h252a100.113 100.113 0 01100 100z"></path>
    <path d="M320 400h16v16h-16zm-32 0h16v16h-16zm-32 0h16v16h-16z"></path>
  </symbol>
  <symbol xmlns="http://www.w3.org/2000/svg" viewBox="0 0 501.656 501.656" id="clock">
    <path d="M342.512 328h-200a8 8 0 00-5.656 2.344l-96 96 11.312 11.312L145.824 344h187.888c-1.664 9.496-6.888 24-23.2 24h-88v16h88c31.64 0 40-31.4 40-48a8 8 0 00-8-8z"></path>
    <path d="M444.168 274.344a8 8 0 00-11.312 0l-72 72 11.312 11.312 65.712-65.712c10.828 14.37 8.629 34.68-5.024 46.4L339.2 432H174.512a8 8 0 00-5.656 2.344l-56 56 11.312 11.312L177.824 448h164.688a8 8 0 005.656-2.344l96-96c29.792-29.792 13.024-62.288 0-75.312zM262.512 0c-83.947 0-152 68.053-152 152s68.053 152 152 152c83.909-.093 151.907-68.091 152-152 0-83.947-68.053-152-152-152zm0 288c-75.111 0-136-60.889-136-136s60.89-136 136-136c75.076.084 135.916 60.924 136 136 0 75.111-60.889 136-136 136z"></path>
    <path d="M262.512 40c-61.856 0-112 50.144-112 112s50.145 112 112 112c61.828-.066 111.934-50.172 112-112 0-61.856-50.144-112-112-112zm8 207.666V224h-16v23.666c-46.637-3.848-83.817-41.028-87.666-87.666h23.666v-16h-23.666c3.849-46.637 41.029-83.817 87.666-87.666V80h16V56.343c46.612 3.893 83.764 41.045 87.657 87.657h-23.657v16h23.666c-3.848 46.637-41.028 83.817-87.666 87.666z"></path>
    <path d="M284.18 162.33a23.909 23.909 0 002.333-10.33c0-10.449-6.68-19.334-16-22.629V96h-16v33.371c-9.32 3.295-16 12.18-16 22.629-.001 13.255 10.745 24 23.999 24 3.711 0 7.225-.843 10.362-2.347l23.977 23.977 11.314-11.314-23.985-23.986zM262.512 160a8 8 0 110-16 8 8 0 010 16z"></path>
  </symbol>
  <symbol xmlns="http://www.w3.org/2000/svg" viewBox="0 0 64 64" id="computer">
    <path d="M13.293 14.293l-3 3a1 1 0 000 1.414l3 3 1.414-1.414L12.414 18l2.293-2.293zm2.763 7.359l2.999-7.998 1.872.702-2.999 7.998zm7.651.055l3-3a1 1 0 000-1.414l-3-3-1.414 1.414L24.586 18l-2.293 2.293zM10 26h4v2h-4zm6 0h10v2H16zm-4 4h4v2h-4zm6 0h10v2H18zm12 0h2v2h-2zm-18 4h4v2h-4zm6 0h10v2H18zm12 0h2v2h-2zm31.142-20.99l-2.682-.383a10.86 10.86 0 00-.679-1.639l1.625-2.166a1 1 0 00-.093-1.307l-2.828-2.828a1 1 0 00-1.306-.093l-2.167 1.624a10.9 10.9 0 00-1.639-.678l-.383-2.682A1 1 0 0050 2h-4a1 1 0 00-.99.858l-.383 2.682a10.855 10.855 0 00-1.639.678l-2.167-1.624a1 1 0 00-1.306.093l-2.828 2.828a1 1 0 00-.093 1.307l1.625 2.166a10.86 10.86 0 00-.679 1.639l-2.682.383A1 1 0 0034 14v4a1 1 0 00.858.99l2.682.383a10.86 10.86 0 00.679 1.639l-1.625 2.166a1 1 0 00.093 1.307l2.828 2.828a1 1 0 001.306.093l2.167-1.624a10.855 10.855 0 001.639.678l.383 2.682A1 1 0 0046 30h4a1 1 0 00.99-.858l.383-2.682a10.9 10.9 0 001.639-.678l2.167 1.624a1 1 0 001.306-.093l2.828-2.828a1 1 0 00.093-1.307l-1.625-2.166a10.86 10.86 0 00.679-1.639l2.682-.383A1 1 0 0062 18v-4a1 1 0 00-.858-.99zM60 17.133l-2.463.352a1 1 0 00-.827.742 8.923 8.923 0 01-.977 2.357 1 1 0 00.061 1.111l1.492 1.99-1.6 1.6-1.991-1.492a1 1 0 00-1.11-.06 8.859 8.859 0 01-2.356.975 1 1 0 00-.744.828L49.133 28h-2.266l-.351-2.463a1 1 0 00-.744-.828 8.859 8.859 0 01-2.356-.975 1 1 0 00-1.11.06l-1.991 1.492-1.6-1.6 1.492-1.99a1 1 0 00.061-1.111 8.923 8.923 0 01-.977-2.357 1 1 0 00-.827-.742L36 17.133v-2.266l2.463-.352a1 1 0 00.827-.742 8.923 8.923 0 01.977-2.357 1 1 0 00-.061-1.111l-1.492-1.99 1.6-1.6 1.991 1.492a1 1 0 001.11.06 8.859 8.859 0 012.356-.975 1 1 0 00.744-.828L46.867 4h2.266l.351 2.463a1 1 0 00.744.828 8.859 8.859 0 012.356.975 1 1 0 001.11-.06l1.991-1.492 1.6 1.6-1.492 1.99a1 1 0 00-.061 1.111 8.923 8.923 0 01.977 2.357 1 1 0 00.827.742l2.464.353z"></path>
    <path d="M48 10a6 6 0 106 6 6.006 6.006 0 00-6-6zm0 10a4 4 0 114-4 4 4 0 01-4 4z"></path>
    <path d="M52 40H4V15a3 3 0 013-3h28v-2H7a5.006 5.006 0 00-5 5v30a5.006 5.006 0 005 5h12.867l-.75 6H17a2 2 0 00-2 2v2a2 2 0 002 2h22a2 2 0 002-2v-2a2 2 0 00-2-2h-2.117l-.75-6H49a5.006 5.006 0 005-5V29h-2zM39 60H17v-2h22zm-4.133-4H21.133l.75-6h12.234zM49 48H7a3 3 0 01-3-3v-3h48v3a3 3 0 01-3 3z"></path>
    <path d="M46 44h2v2h-2z"></path>
  </symbol>
  <symbol xmlns="http://www.w3.org/2000/svg" viewBox="0 0 50 2" id="line">
    <path fill="#63c3ef" d="M0 0h50v2H0z"></path>
  </symbol>
  <symbol xmlns="http://www.w3.org/2000/svg" viewBox="0 0 16 11" id="tick">
    <path d="M2 4l4 4 8-8" fill="none" stroke="#2dd5a7" stroke-width="2"></path>
  </symbol>
  <symbol xmlns="http://www.w3.org/2000/svg" viewBox="0 0 485.656 485.656" id="settings">
    <path d="M334.512 312h-200a8 8 0 00-5.656 2.344l-96 96 11.312 11.312L137.824 328h187.888c-1.664 9.496-6.888 24-23.2 24h-88v16h88c31.64 0 40-31.4 40-48a8 8 0 00-8-8z"></path>
    <path d="M436.168 258.344a8 8 0 00-11.312 0l-72 72 11.312 11.312 65.712-65.712c10.828 14.37 8.629 34.68-5.024 46.4L331.2 416H166.512a8 8 0 00-5.656 2.344l-56 56 11.312 11.312L169.824 432h164.688a8 8 0 005.656-2.344l96-96c29.792-29.792 13.024-62.288 0-75.312zM390.512 112H361.76a111.297 111.297 0 00-8.792-21.192l20.344-20.344a8 8 0 000-11.312L339.36 25.208a8 8 0 00-11.312 0l-20.344 20.344a110.95 110.95 0 00-21.192-8.8V8a8 8 0 00-8-8h-48a8 8 0 00-8 8v28.752a110.95 110.95 0 00-21.192 8.8l-20.344-20.344a8 8 0 00-11.312 0l-33.952 33.944a8 8 0 000 11.312l20.352 20.344a111.392 111.392 0 00-8.8 21.192h-28.752a8 8 0 00-8 8v48a8 8 0 008 8h28.752a111.297 111.297 0 008.792 21.192l-20.344 20.344a8 8 0 000 11.312l33.952 33.952a8.232 8.232 0 0011.312 0l20.344-20.352a111.392 111.392 0 0021.192 8.8V280a8 8 0 008 8h48a8 8 0 008-8v-28.752a111.454 111.454 0 0021.192-8.792l20.344 20.344a8 8 0 0011.312 0l33.944-33.952a8 8 0 000-11.312l-20.344-20.344a111.392 111.392 0 008.8-21.192h28.752a8 8 0 008-8v-48a8 8 0 00-8-8zm-7.999 48h-26.888a8 8 0 00-7.784 6.16 95.729 95.729 0 01-11.68 28.144 8.001 8.001 0 001.152 9.864l19.032 19.024-22.64 22.64-19.024-19.04a8.001 8.001 0 00-9.864-1.152 95.436 95.436 0 01-28.144 11.688 8 8 0 00-6.16 7.784V272h-32v-26.88a8 8 0 00-6.16-7.784 95.436 95.436 0 01-28.144-11.688 8.001 8.001 0 00-9.864 1.152l-19.024 19.04-22.64-22.64 19.032-19.04a8.001 8.001 0 001.152-9.864 95.74 95.74 0 01-11.68-28.144 8 8 0 00-7.784-6.16h-26.888v-32H153.4a8 8 0 007.784-6.16 95.74 95.74 0 0111.68-28.144 8.001 8.001 0 00-1.152-9.864L152.68 64.8l22.632-22.624 19.032 19.032a8.001 8.001 0 009.864 1.152 95.198 95.198 0 0128.144-11.68 8 8 0 006.16-7.784V16h32v26.896a8 8 0 006.168 7.784 95.198 95.198 0 0128.144 11.68 8.001 8.001 0 009.864-1.152l19.024-19.032L356.345 64.8l-19.032 19.032a8.001 8.001 0 00-1.152 9.864 95.74 95.74 0 0111.68 28.144 8 8 0 007.784 6.16h26.888v32z"></path>
    <path d="M254.512 96c-26.51 0-48 21.49-48 48s21.491 48 48 48c26.499-.026 47.974-21.501 48-48 0-26.51-21.49-48-48-48zm0 80c-17.673 0-32-14.327-32-32 0-17.673 14.327-32 32-32 17.673 0 32 14.327 32 32 0 17.673-14.327 32-32 32z"></path>
  </symbol>
  <symbol xmlns="http://www.w3.org/2000/svg" viewBox="0 0 51 51" id="chevron">
    <circle cx="25.5" cy="25.5" r="25.5" fill="#393939"></circle>
    <rect x="24.4" y="27.9" width="1.6" height="15.24" rx=".8" transform="rotate(-39 11.114 37.674)"></rect>
    <rect x="33.3" y="27.9" width="1.6" height="15.24" rx=".8" transform="rotate(37.3 44.444 24.605)"></rect>
  </symbol>
  <symbol xmlns="http://www.w3.org/2000/svg" viewBox="0 0 21.8 23.8" id="search">
    <path d="M.1 8.6a8.7 8.7 0 00.8 4.8 1 1 0 001.2.4.8.8 0 00.4-1.2 8.3 8.3 0 01-.7-3.8A7.62 7.62 0 0117 9.9a7.7 7.7 0 01-11.8 5.8.8.8 0 00-1.2.2.9.9 0 00.2 1.3 10 10 0 004.5 1.5 9.3 9.3 0 006.1-1.7l5.5 6.4a.9.9 0 00.6.3.7.7 0 00.7-.2.9.9 0 00.1-1.2l-5.6-6.4a8.9 8.9 0 002.6-5.8A9.33 9.33 0 10.1 8.6z" fill="#ecf6fc"></path>
  </symbol>
</svg>